<!-- 

    FISHY: IMPROPERLY COMPRESSED AND FORMATTED - UNHARDENED
    - - - - - - - - - - - - - - - - - - - - - - -
    NOTE: 
        - the eye being a solid shape instead of a transparent "cutout"
        - CSS cannot edit the color conventionally
        - Test is displayed as paths and cannot be selected
        - Filesize being almose 8 times as large!

-->

<?xml version="1.0" encoding="UTF-8"?>
<svg id="Layer_2" xmlns="http://www.w3.org/2000/svg" viewBox="0 0 947.06 662.04">
    <defs>
        <style>
             .cls-1{fill:#fff;}
        </style>
    </defs>
    <g id="Layer_1-2">
        <g>
            <g>
                <path d="M934.74,126.52l-32.36,117.98c-10.59,38.6-9.2,79.5,4.02,118.48l40.66,119.87-217.27-133.28v-49.63l204.95-173.42Z"/>
                <g>
                <path d="M497.93,82.92c-8.24-1.57-16.63-2.74-25.14-3.45-6.71-.56-74.26-1.33-81.12-1.33-38.37,0-73.1,3.23-104.52,8.94-1.53,.28-3.04,.56-4.55,.85C45.99,133.15,0,319.8,0,319.8c0,0,171.43,241.67,391.67,241.67,10.1,0,80.81-.13,90.58-1.33,119.39-14.7,296.32-116.96,296.32-240.33S609.64,104.21,497.93,82.92Z"/>
                <circle class="cls-1" cx="151.19" cy="251.95" r="32.14"/>
                </g>
            </g>
            <g>
                <path d="M391.67,78.14c6.86,0,74.41,.77,81.12,1.33,8.52,.71,16.9,1.88,25.14,3.45-13.78-22.77-20.85-40.61,23.5-73.19-77.94-30.2-189.3,13.81-238.84,78.2,1.51-.29,3.03-.58,4.55-.85,31.42-5.71,66.15-8.94,104.52-8.94Z"/>
                <g>
                    <path d="M195.87,587.98l-6.42,.3c-.2-4.2-1.98-6.3-5.34-6.3h-9.06v11.64h2.46c1.4,0,2.28-2.08,2.64-6.24h6.36l-.9,19.92h-6.24c-.44-4.32-1.2-6.48-2.28-6.48h-2.04v9.18c0,1.84,2.1,2.76,6.3,2.76v6.3h-26.82v-6.3c3.56,0,5.34-.92,5.34-2.76v-26.46c0-1.84-1.78-2.76-5.34-2.76v-6.3h41.34v13.5Z"/>
                    <path d="M217.59,610.06c0,1.8,1.68,2.69,5.04,2.69v6.3h-23.76v-6.3c3.36,0,5.04-.9,5.04-2.69v-12.62c0-1.83-1.68-2.75-5.04-2.75v-6.18h18.72v21.55Zm-13.56-30.85c0-.96,.18-1.86,.54-2.7s.86-1.58,1.5-2.22c.64-.64,1.38-1.14,2.22-1.5,.84-.36,1.74-.54,2.7-.54s1.86,.18,2.7,.54c.84,.36,1.58,.86,2.22,1.5,.64,.64,1.14,1.38,1.5,2.22,.36,.84,.54,1.74,.54,2.7s-.18,1.86-.54,2.7c-.36,.84-.86,1.58-1.5,2.22s-1.38,1.14-2.22,1.5c-.84,.36-1.74,.54-2.7,.54s-1.86-.18-2.7-.54c-.84-.36-1.58-.86-2.22-1.5-.64-.64-1.14-1.38-1.5-2.22-.36-.84-.54-1.74-.54-2.7Z"/>
                    <path d="M254.97,598.54l-6.18,.36c-.28-.96-.72-1.77-1.32-2.43-.6-.66-1.29-1.18-2.07-1.56-.78-.38-1.64-.65-2.58-.81-.94-.16-1.89-.24-2.85-.24-2.48,0-3.72,.64-3.72,1.92,0,.72,.37,1.28,1.11,1.68,.74,.4,1.74,.75,2.98,1.05,1.24,.3,2.68,.59,4.3,.87,1.62,.28,3.32,.68,5.08,1.2,2.53,.76,4.39,1.82,5.6,3.18,1.2,1.36,1.81,3.24,1.81,5.64,0,1.76-.36,3.27-1.08,4.53-.72,1.26-1.63,2.29-2.73,3.09-1.1,.8-2.33,1.4-3.69,1.8-1.36,.4-2.7,.6-4.02,.6-2.16,0-3.91-.1-5.25-.3-1.34-.2-2.43-.41-3.27-.63-.84-.22-1.53-.43-2.07-.63-.54-.2-1.07-.3-1.59-.3-.36,0-.65,.11-.87,.33s-.43,.61-.63,1.17h-6.12v-10.26l6.12-.24c.24,.84,.74,1.56,1.5,2.16,.76,.6,1.67,1.1,2.73,1.5,1.06,.4,2.2,.7,3.42,.9,1.22,.2,2.41,.3,3.57,.3,2.2,0,3.3-.74,3.3-2.22,0-.72-.31-1.27-.93-1.65-.62-.38-1.46-.68-2.52-.9-1.06-.22-2.31-.43-3.75-.63-1.44-.2-2.96-.5-4.56-.9-1.76-.44-3.21-.97-4.35-1.59-1.14-.62-2.05-1.33-2.73-2.13-.68-.8-1.16-1.7-1.44-2.7-.28-1-.42-2.1-.42-3.3,0-2.8,.95-5.08,2.86-6.84,1.91-1.76,4.59-2.64,8.06-2.64,1.56,0,2.92,.11,4.08,.33,1.16,.22,2.15,.45,2.97,.69,.82,.24,1.52,.47,2.1,.69,.58,.22,1.09,.33,1.53,.33,.68,0,1.36-.48,2.04-1.44h5.58v10.02Z"/>
                    <path d="M287.73,610.07v-6.04c0-4.98-1.12-7.47-3.36-7.47-2.68,0-4.46,2.27-5.34,6.81v6.7c0,1.79,.9,2.69,2.7,2.69v6.3h-21.42v-6.3c3.36,0,5.04-.9,5.04-2.7v-28.33c0-1.8-1.66-2.7-4.98-2.7v-6.18h18.66v21.78c2.64-4.48,6.86-6.72,12.66-6.72,6.48,0,9.72,2.97,9.72,8.92v13.23c0,1.8,1.7,2.69,5.1,2.69v6.3h-21.54v-6.3c1.84,0,2.76-.9,2.76-2.69Z"/>
                    <path d="M322.35,596.02c0,.28,.06,.54,.18,.78l5.1,13.86,5.22-13.38c.16-.32,.24-.7,.24-1.14,0-.96-.7-1.44-2.1-1.44h-.66v-6.18h12.66v6.18c-2.44,0-3.92,.68-4.44,2.04l-9.72,24.6c-.68,1.76-1.41,3.37-2.19,4.83-.78,1.46-1.68,2.71-2.7,3.75-1.02,1.04-2.21,1.85-3.57,2.43-1.36,.58-3,.87-4.92,.87-1.44,0-2.77-.18-3.99-.54-1.22-.36-2.29-.9-3.21-1.62-.92-.72-1.64-1.64-2.16-2.76-.52-1.12-.78-2.44-.78-3.96,0-1.68,.49-3.01,1.47-3.99,.98-.98,2.37-1.47,4.17-1.47,1.48,0,2.66,.33,3.54,.99,.88,.66,1.32,1.59,1.32,2.79,0,1.04-.34,1.92-1.02,2.64-.68,.72-1.66,1.12-2.94,1.2,.36,.56,.79,.99,1.29,1.29,.5,.3,1.39,.45,2.67,.45,2.16,0,4-1.12,5.52-3.36l-11.88-28.08c-.32-.68-.87-1.2-1.65-1.56-.78-.36-1.61-.54-2.49-.54v-6.18h19.56v6.18h-.96c-1.04,0-1.56,.44-1.56,1.32Z"/>
                    <path d="M406.29,587.98l-6.42,.3c-.2-4.2-1.98-6.3-5.34-6.3h-9.06v11.64h2.46c1.4,0,2.28-2.08,2.64-6.24h6.36l-.9,19.92h-6.24c-.44-4.32-1.2-6.48-2.28-6.48h-2.04v9.18c0,1.84,2.1,2.76,6.3,2.76v6.3h-26.82v-6.3c3.56,0,5.34-.92,5.34-2.76v-26.46c0-1.84-1.78-2.76-5.34-2.76v-6.3h41.34v13.5Z"/>
                    <path d="M441.39,603.64c0,5.52-1.57,9.64-4.71,12.36-3.14,2.72-7.51,4.08-13.11,4.08-2.28,0-4.46-.22-6.54-.66-2.08-.44-3.91-1.24-5.49-2.4-1.58-1.16-2.83-2.76-3.75-4.8-.92-2.04-1.38-4.66-1.38-7.86,0-5.88,1.5-10.19,4.5-12.93,3-2.74,7.42-4.11,13.26-4.11,2.36,0,4.59,.24,6.69,.72,2.1,.48,3.93,1.33,5.49,2.55,1.56,1.22,2.79,2.88,3.69,4.98,.9,2.1,1.35,4.79,1.35,8.07Zm-17.64,9.78c.76,0,1.39-.13,1.89-.39,.5-.26,.9-.74,1.2-1.44,.3-.7,.52-1.67,.66-2.91,.14-1.24,.21-2.84,.21-4.8s-.06-3.7-.18-4.98c-.12-1.28-.33-2.28-.63-3-.3-.72-.69-1.21-1.17-1.47-.48-.26-1.08-.39-1.8-.39-.68,0-1.27,.12-1.77,.36-.5,.24-.91,.68-1.23,1.32-.32,.64-.56,1.53-.72,2.67-.16,1.14-.24,2.61-.24,4.41,0,2.24,.05,4.06,.15,5.46,.1,1.4,.29,2.48,.57,3.24,.28,.76,.66,1.27,1.14,1.53,.48,.26,1.12,.39,1.92,.39Z"/>
                    <path d="M479.55,603.64c0,5.52-1.57,9.64-4.71,12.36-3.14,2.72-7.51,4.08-13.11,4.08-2.28,0-4.46-.22-6.54-.66-2.08-.44-3.91-1.24-5.49-2.4-1.58-1.16-2.83-2.76-3.75-4.8-.92-2.04-1.38-4.66-1.38-7.86,0-5.88,1.5-10.19,4.5-12.93,3-2.74,7.42-4.11,13.26-4.11,2.36,0,4.59,.24,6.69,.72,2.1,.48,3.93,1.33,5.49,2.55,1.56,1.22,2.79,2.88,3.69,4.98,.9,2.1,1.35,4.79,1.35,8.07Zm-17.64,9.78c.76,0,1.39-.13,1.89-.39,.5-.26,.9-.74,1.2-1.44,.3-.7,.52-1.67,.66-2.91,.14-1.24,.21-2.84,.21-4.8s-.06-3.7-.18-4.98c-.12-1.28-.33-2.28-.63-3-.3-.72-.69-1.21-1.17-1.47-.48-.26-1.08-.39-1.8-.39-.68,0-1.27,.12-1.77,.36-.5,.24-.91,.68-1.23,1.32-.32,.64-.56,1.53-.72,2.67-.16,1.14-.24,2.61-.24,4.41,0,2.24,.05,4.06,.15,5.46,.1,1.4,.29,2.48,.57,3.24,.28,.76,.66,1.27,1.14,1.53,.48,.26,1.12,.39,1.92,.39Z"/>
                    <path d="M482.49,603.7c0-2.96,.35-5.48,1.05-7.56,.7-2.08,1.68-3.77,2.94-5.07,1.26-1.3,2.78-2.25,4.56-2.85,1.78-.6,3.75-.9,5.91-.9,1.6,0,3.11,.2,4.53,.6,1.42,.4,2.63,1.04,3.63,1.92v-8.1c0-1.8-1.66-2.7-4.98-2.7v-6.18h18.72v37.2c0,1.8,1.7,2.7,5.1,2.7v6.3h-16.74l-.42-4.98c-.48,.96-1.12,1.82-1.92,2.58-.8,.76-1.71,1.39-2.73,1.89-1.02,.5-2.1,.88-3.24,1.14-1.14,.26-2.31,.39-3.51,.39-1.88,0-3.61-.3-5.19-.9-1.58-.6-2.94-1.55-4.08-2.85-1.14-1.3-2.03-2.99-2.67-5.07-.64-2.08-.96-4.6-.96-7.56Zm18.9,8.04c.88,0,1.63-.14,2.25-.42,.62-.28,1.12-.77,1.5-1.47,.38-.7,.65-1.62,.81-2.76,.16-1.14,.24-2.55,.24-4.23s-.08-3.09-.24-4.23c-.16-1.14-.43-2.06-.81-2.76-.38-.7-.88-1.19-1.5-1.47-.62-.28-1.37-.42-2.25-.42s-1.64,.14-2.28,.42c-.64,.28-1.17,.77-1.59,1.47-.42,.7-.74,1.62-.96,2.76-.22,1.14-.33,2.55-.33,4.23s.11,3.09,.33,4.23c.22,1.14,.54,2.06,.96,2.76,.42,.7,.95,1.19,1.59,1.47,.64,.28,1.4,.42,2.28,.42Z"/>
                    <path d="M572.67,580.78c-3.56,0-5.34,.92-5.34,2.76v26.46c0,1.84,1.78,2.76,5.34,2.76v6.3h-25.92v-6.3c3.6,0,5.4-.92,5.4-2.76v-26.46c0-1.84-1.8-2.76-5.4-2.76v-6.3h25.92v6.3Z"/>
                    <path d="M603.81,610.07v-5.74c0-4.98-1.12-7.47-3.36-7.47-2.68,0-4.46,2.27-5.34,6.81v6.4c0,1.79,.9,2.69,2.7,2.69v6.3h-21.42v-6.3c3.36,0,5.04-.9,5.04-2.69v-12.68c0-1.79-1.66-2.69-4.98-2.69v-6.18h18.66v6.12c2.64-4.48,6.86-6.72,12.66-6.72,6.48,0,9.72,2.97,9.72,8.92v13.23c0,1.8,1.7,2.69,5.1,2.69v6.3h-21.54v-6.3c1.84,0,2.76-.9,2.76-2.69Z"/>
                    <path d="M652.08,594.28c-.44-.72-1.14-1.23-2.1-1.53-.96-.3-2.02-.45-3.18-.45-.96,0-1.88,.23-2.76,.69-.88,.46-1.66,1.13-2.34,2.01-.68,.88-1.22,1.95-1.62,3.21-.4,1.26-.6,2.69-.6,4.29,0,3.76,.5,6.52,1.5,8.28,1,1.76,2.8,2.64,5.4,2.64,1.52,0,2.85-.42,3.99-1.26,1.14-.84,1.81-2.16,2.01-3.96l6.33,.42c-.24,1.4-.69,2.78-1.34,4.14-.66,1.36-1.54,2.58-2.65,3.66-1.11,1.08-2.5,1.96-4.16,2.64-1.66,.68-3.59,1.02-5.79,1.02-2.8,0-5.35-.29-7.65-.87-2.3-.58-4.28-1.52-5.94-2.82-1.66-1.3-2.95-2.97-3.87-5.01-.92-2.04-1.38-4.52-1.38-7.44,0-2.2,.34-4.31,1.02-6.33,.68-2.02,1.73-3.79,3.15-5.31,1.42-1.52,3.24-2.73,5.46-3.63s4.87-1.35,7.95-1.35c2.12,0,4.1,.17,5.94,.51,1.84,.34,3.43,.91,4.76,1.71,1.33,.8,2.38,1.84,3.13,3.12,.76,1.28,1.13,2.88,1.13,4.8,0,1.52-.43,2.84-1.28,3.96-.85,1.12-2.24,1.68-4.15,1.68-1.71,0-2.98-.43-3.82-1.29-.83-.86-1.25-1.89-1.25-3.09,0-1.04,.37-2.02,1.1-2.94,.74-.92,1.74-1.42,3.01-1.5Z"/>
                    <path d="M663.39,613.3c0-.84,.16-1.63,.48-2.37,.32-.74,.77-1.39,1.35-1.95,.58-.56,1.25-1,2.01-1.32,.76-.32,1.56-.48,2.4-.48s1.63,.16,2.37,.48c.74,.32,1.39,.76,1.95,1.32,.56,.56,1,1.21,1.32,1.95,.32,.74,.48,1.53,.48,2.37s-.16,1.64-.48,2.4c-.32,.76-.76,1.43-1.32,2.01-.56,.58-1.21,1.03-1.95,1.35-.74,.32-1.53,.48-2.37,.48s-1.64-.16-2.4-.48-1.43-.77-2.01-1.35c-.58-.58-1.03-1.25-1.35-2.01-.32-.76-.48-1.56-.48-2.4Z"/>
                </g>
            </g>
            <g>
                <path d="M298.65,647.93l-2.1,.1c-.08-1.79-.87-2.69-2.35-2.69h-3.95v4.39h1.6c.66,0,1.05-.78,1.18-2.35h1.85l-.31,6.55h-1.81c-.15-1.62-.5-2.44-1.05-2.44h-1.45v5.17h3.19c2.21,0,3.4-1.33,3.57-3.99l2.14,.15-.5,5.98h-14.53v-1.72c1.25,0,1.87-.32,1.87-.97v-10.23c0-.64-.62-.97-1.87-.97v-1.72h14.53v4.73Z"/>
                <path d="M310.18,651.8l-1.7,.15c-.18-.84-.58-1.44-1.21-1.8s-1.36-.54-2.22-.54c-.52,0-.92,.09-1.21,.26-.29,.18-.43,.41-.43,.7,0,.36,.18,.64,.55,.82,.36,.18,.82,.34,1.36,.46s1.14,.25,1.79,.38c.64,.13,1.24,.32,1.79,.57,.55,.25,1,.6,1.36,1.03,.36,.43,.55,1.02,.55,1.74,0,.57-.11,1.07-.34,1.49-.22,.42-.52,.77-.89,1.05-.37,.28-.8,.49-1.29,.62-.49,.13-.99,.2-1.51,.2-.98,0-1.74-.07-2.27-.2-.53-.13-.97-.29-1.3-.47-.1-.04-.2-.08-.29-.13s-.2-.06-.29-.06c-.27,0-.43,.25-.5,.73h-1.7v-3.8c.28-.03,.56-.05,.84-.06,.28-.01,.56-.03,.84-.04,.08,.38,.26,.71,.51,1.01,.26,.29,.58,.54,.96,.75,.38,.2,.79,.36,1.25,.46s.91,.16,1.38,.16c.5,0,.9-.1,1.18-.32,.28-.21,.42-.48,.42-.8s-.13-.59-.38-.76c-.25-.17-.59-.3-1.01-.4-.42-.1-.9-.19-1.44-.27-.54-.08-1.09-.2-1.65-.36-1.05-.28-1.8-.68-2.24-1.21-.44-.53-.66-1.21-.66-2.05,0-.97,.34-1.75,1.01-2.34,.67-.59,1.62-.88,2.86-.88,.5,0,.96,.05,1.36,.14s.76,.2,1.06,.32c.3,.12,.56,.23,.78,.32,.22,.09,.39,.14,.51,.14,.17,0,.3-.05,.39-.16,.09-.1,.16-.28,.22-.54h1.58v3.67Z"/>
                <path d="M317.6,648.12h2.75l-.11,1.79c-.39-.08-.81-.14-1.24-.18-.43-.03-.9-.05-1.41-.05v6.7c0,.32,.06,.56,.18,.71,.12,.15,.33,.23,.62,.23s.5-.08,.61-.25c.11-.17,.17-.4,.17-.69v-1.01h1.24v.65c0,.45-.05,.85-.16,1.21s-.28,.67-.52,.92c-.25,.26-.57,.46-.97,.6-.4,.14-.89,.21-1.46,.21-1.3,0-2.22-.28-2.75-.83-.53-.55-.8-1.31-.8-2.26v-6.19h-1.81v-1.28c.38-.03,.75-.08,1.12-.17s.7-.23,.99-.44c.29-.21,.52-.5,.69-.88,.17-.38,.26-.87,.26-1.47v-.46l2.58-.15v3.3Z"/>
                <path d="M326.18,657.05c0,.55-.18,1-.55,1.38-.37,.37-.82,.56-1.35,.56s-1.01-.19-1.38-.56c-.37-.37-.56-.83-.56-1.38,0-.52,.19-.96,.56-1.33,.37-.37,.83-.56,1.38-.56,.27,0,.52,.05,.75,.15,.23,.1,.43,.23,.6,.41,.17,.18,.3,.38,.4,.61,.1,.23,.15,.47,.15,.72Z"/>
                <path d="M347.2,654.99c.03,.18,.05,.4,.05,.66,0,.26,.01,.47,.01,.62,0,.38-.05,.73-.15,1.07-.1,.34-.26,.63-.48,.88-.22,.25-.51,.45-.85,.6-.34,.15-.75,.22-1.23,.22-.77,0-1.39-.07-1.87-.2-.48-.13-.91-.28-1.29-.44-.39-.16-.77-.31-1.15-.44-.39-.13-.86-.2-1.44-.2-.49,0-.89,.09-1.21,.26-.31,.18-.57,.44-.77,.79h-1.51c.21-1.19,.54-2.17,.98-2.93,.44-.76,.93-1.4,1.47-1.91,.54-.51,1.09-.94,1.66-1.29,.57-.35,1.08-.71,1.55-1.07,.47-.36,.85-.78,1.16-1.25,.3-.47,.45-1.08,.45-1.84s-.21-1.34-.64-1.74c-.43-.41-1-.61-1.73-.61s-1.23,.1-1.57,.31c-.35,.21-.6,.47-.76,.78,.29,.01,.57,.16,.82,.43s.38,.61,.38,1.02c0,.49-.15,.9-.45,1.22-.3,.32-.72,.48-1.27,.48s-.94-.17-1.23-.51c-.29-.34-.43-.78-.43-1.31,0-.43,.1-.89,.3-1.38,.2-.48,.52-.92,.97-1.32,.44-.4,1-.73,1.69-1,.69-.27,1.5-.4,2.46-.4,.71,0,1.41,.07,2.1,.21s1.29,.38,1.83,.71c.53,.34,.96,.78,1.29,1.34,.33,.56,.49,1.26,.49,2.1,0,.97-.2,1.75-.61,2.36-.41,.61-.92,1.11-1.54,1.49-.62,.39-1.3,.7-2.04,.93-.74,.24-1.44,.48-2.11,.71-.67,.24-1.26,.51-1.75,.81-.5,.3-.82,.71-.96,1.23,.41-.36,.83-.62,1.28-.78,.45-.15,.95-.23,1.51-.23,.48,0,.89,.04,1.24,.13,.35,.08,.67,.18,.97,.27,.29,.1,.58,.19,.86,.27,.28,.08,.59,.13,.92,.13,.39,0,.72-.08,.98-.24,.26-.16,.42-.48,.49-.96h1.13Z"/>
                <path d="M355.56,644.49c1.08,0,2.03,.12,2.85,.36,.82,.24,1.5,.64,2.05,1.22,.55,.57,.96,1.34,1.23,2.3s.41,2.16,.41,3.6-.14,2.58-.41,3.51c-.27,.92-.68,1.66-1.23,2.21-.55,.55-1.23,.93-2.05,1.14-.82,.22-1.77,.33-2.85,.33s-2.04-.11-2.86-.33c-.81-.22-1.49-.6-2.04-1.14-.55-.55-.96-1.28-1.23-2.21-.27-.92-.41-2.09-.41-3.51s.14-2.64,.41-3.6,.68-1.73,1.23-2.3c.55-.57,1.23-.98,2.05-1.22,.82-.24,1.77-.36,2.85-.36Zm0,1.93c-.48,0-.87,.12-1.18,.35s-.55,.58-.73,1.04c-.18,.46-.31,1.04-.38,1.72-.07,.69-.1,1.49-.1,2.42,0,1.09,.03,1.98,.1,2.66,.07,.68,.19,1.21,.37,1.59,.17,.38,.42,.64,.72,.78,.31,.14,.71,.21,1.2,.21s.87-.07,1.18-.21c.31-.14,.55-.4,.74-.78,.18-.38,.31-.91,.38-1.59,.07-.68,.1-1.56,.1-2.66,0-.92-.04-1.73-.1-2.42-.07-.69-.2-1.26-.38-1.72-.18-.46-.43-.81-.74-1.04s-.7-.35-1.18-.35Z"/>
                <path d="M368.18,650.51c.39-.03,.75-.09,1.07-.18,.32-.09,.6-.23,.82-.41,.22-.18,.4-.42,.52-.7,.13-.29,.19-.64,.19-1.06,0-.71-.19-1.22-.57-1.52-.38-.3-.95-.45-1.7-.45-.53,0-1,.08-1.41,.24-.41,.16-.74,.38-1.01,.66,.38,.03,.71,.17,1,.44,.29,.27,.43,.6,.43,1.01,0,.46-.15,.86-.45,1.19-.3,.33-.72,.49-1.25,.49s-.92-.17-1.21-.5c-.29-.34-.43-.76-.43-1.28,0-.43,.09-.89,.28-1.35,.19-.47,.5-.9,.92-1.29,.43-.39,.98-.71,1.67-.96,.69-.25,1.53-.37,2.52-.37,.71,0,1.39,.07,2.03,.2,.64,.13,1.2,.34,1.68,.61,.48,.27,.87,.63,1.15,1.07,.29,.44,.43,.96,.43,1.57,0,.88-.25,1.58-.75,2.08-.5,.5-1.29,.87-2.38,1.09,1.27,.15,2.21,.54,2.79,1.15,.59,.61,.88,1.38,.88,2.32,0,.8-.17,1.49-.51,2.06-.34,.57-.8,1.05-1.38,1.43-.57,.38-1.24,.66-2.01,.83-.76,.18-1.56,.26-2.4,.26-.88,0-1.66-.12-2.32-.36s-1.23-.54-1.68-.91c-.46-.37-.79-.78-1.02-1.24-.22-.46-.34-.91-.34-1.35,0-.55,.15-.99,.44-1.33,.29-.34,.71-.51,1.26-.51s.95,.17,1.26,.5c.31,.34,.46,.75,.46,1.24,0,.32-.11,.62-.33,.88-.22,.27-.49,.41-.81,.44,.2,.29,.55,.53,1.07,.7,.52,.18,1.07,.26,1.66,.26,.8,0,1.42-.21,1.86-.63,.44-.42,.66-1.01,.66-1.78,0-1.12-.26-1.92-.77-2.39-.51-.48-1.34-.77-2.49-.88l.13-1.26Z"/>
                <path d="M389.1,654.99c.03,.18,.05,.4,.05,.66,0,.26,.01,.47,.01,.62,0,.38-.05,.73-.15,1.07-.1,.34-.26,.63-.48,.88-.22,.25-.51,.45-.85,.6-.34,.15-.75,.22-1.23,.22-.77,0-1.39-.07-1.87-.2-.48-.13-.91-.28-1.29-.44-.39-.16-.77-.31-1.15-.44-.39-.13-.86-.2-1.44-.2-.49,0-.89,.09-1.21,.26-.31,.18-.57,.44-.77,.79h-1.51c.21-1.19,.54-2.17,.98-2.93,.44-.76,.93-1.4,1.47-1.91,.54-.51,1.09-.94,1.66-1.29,.57-.35,1.08-.71,1.55-1.07,.47-.36,.85-.78,1.16-1.25,.3-.47,.45-1.08,.45-1.84s-.21-1.34-.64-1.74c-.43-.41-1-.61-1.73-.61s-1.23,.1-1.57,.31c-.35,.21-.6,.47-.76,.78,.29,.01,.57,.16,.82,.43s.38,.61,.38,1.02c0,.49-.15,.9-.45,1.22-.3,.32-.72,.48-1.27,.48s-.94-.17-1.23-.51c-.29-.34-.43-.78-.43-1.31,0-.43,.1-.89,.3-1.38,.2-.48,.52-.92,.97-1.32,.44-.4,1-.73,1.69-1,.69-.27,1.5-.4,2.46-.4,.71,0,1.41,.07,2.1,.21s1.29,.38,1.83,.71c.53,.34,.96,.78,1.29,1.34,.33,.56,.49,1.26,.49,2.1,0,.97-.2,1.75-.61,2.36-.41,.61-.92,1.11-1.54,1.49-.62,.39-1.3,.7-2.04,.93-.74,.24-1.44,.48-2.11,.71-.67,.24-1.26,.51-1.75,.81-.5,.3-.82,.71-.96,1.23,.41-.36,.83-.62,1.28-.78,.45-.15,.95-.23,1.51-.23,.48,0,.89,.04,1.24,.13,.35,.08,.67,.18,.97,.27,.29,.1,.58,.19,.86,.27,.28,.08,.59,.13,.92,.13,.39,0,.72-.08,.98-.24,.26-.16,.42-.48,.49-.96h1.13Z"/>
                <path d="M402.96,653.75h-5.9v-1.91h5.9v1.91Z"/>
                <path d="M418.62,642.87c1.13,0,2.18,.14,3.14,.41,.96,.27,1.79,.72,2.48,1.35,.69,.63,1.23,1.47,1.62,2.51,.38,1.04,.58,2.33,.58,3.85,0,1.26-.16,2.39-.49,3.4-.33,1.01-.83,1.86-1.5,2.56-.67,.7-1.52,1.24-2.53,1.62s-2.22,.57-3.6,.57c-1.13,0-2.18-.13-3.13-.4s-1.77-.7-2.47-1.31c-.69-.61-1.23-1.41-1.62-2.42-.39-1-.58-2.23-.58-3.69,0-1.32,.15-2.5,.45-3.55,.3-1.05,.78-1.94,1.43-2.67,.65-.73,1.49-1.28,2.51-1.67s2.26-.58,3.72-.58Zm.1,2.23c-1.34,0-2.34,.42-2.99,1.25s-.98,2.17-.98,4.02c0,1.34,.08,2.44,.25,3.29s.41,1.51,.71,1.98,.68,.8,1.12,.98,.93,.26,1.46,.26c.7,0,1.3-.1,1.8-.3s.9-.53,1.22-.99c.31-.45,.55-1.05,.69-1.77,.15-.73,.22-1.62,.22-2.67,0-1.22-.08-2.22-.25-2.99-.17-.78-.41-1.39-.71-1.85s-.68-.77-1.11-.95c-.43-.17-.91-.26-1.43-.26Z"/>
                <path d="M433.13,650.07c.36-.8,.83-1.38,1.39-1.74,.56-.36,1.18-.55,1.85-.55,.34,0,.68,.06,1.03,.17,.35,.11,.66,.27,.93,.49,.27,.22,.5,.49,.67,.82,.17,.33,.26,.72,.26,1.17,0,.67-.17,1.22-.5,1.64-.34,.42-.8,.63-1.39,.63-.55,0-.97-.14-1.26-.42-.29-.28-.44-.64-.44-1.07,0-.35,.1-.66,.32-.94,.21-.28,.56-.43,1.05-.46-.13-.2-.29-.34-.48-.43-.2-.09-.41-.14-.63-.14-.28,0-.56,.08-.84,.24-.28,.16-.55,.38-.8,.67-.25,.29-.48,.63-.68,1.03-.2,.4-.36,.83-.47,1.29v3.69c0,.32,.19,.56,.56,.71,.37,.15,.86,.23,1.46,.23v1.72h-7.64v-1.72c1.19,0,1.79-.31,1.79-.94v-5.4c0-.63-.59-.94-1.76-.94v-1.68h5.61v1.95Z"/>
                <path d="M446.01,656.14c0,.63,.6,.94,1.79,.94v1.72h-7.41v-1.72c1.19,0,1.79-.31,1.79-.94v-10.88c0-.63-.6-.94-1.79-.94v-1.68h5.63v13.5Z"/>
                <path d="M460.1,656.44c0,.59,.2,.88,.61,.88,.2,0,.34-.09,.44-.26,.1-.17,.15-.38,.15-.62v-1.07h1.22v.67c0,.59-.09,1.07-.26,1.44-.18,.37-.4,.67-.68,.89-.28,.22-.6,.38-.94,.46-.35,.08-.7,.13-1.05,.13-.87,0-1.51-.2-1.92-.6s-.69-.91-.83-1.52c-.13,.31-.31,.6-.55,.88-.24,.28-.53,.53-.88,.75-.35,.22-.76,.39-1.22,.51-.46,.13-.98,.19-1.55,.19-1.3,0-2.25-.27-2.85-.81-.6-.54-.89-1.26-.89-2.15,0-.56,.1-1.02,.29-1.39,.2-.36,.47-.66,.81-.89,.34-.23,.75-.41,1.23-.55,.48-.13,.99-.26,1.55-.38,.56-.12,1.15-.24,1.78-.37,.63-.13,1.27-.29,1.91-.5v-.65c0-.29-.04-.58-.13-.86-.08-.28-.22-.53-.4-.75-.18-.22-.42-.39-.7-.52-.29-.13-.63-.2-1.02-.2-.59,0-1.08,.05-1.47,.16-.39,.1-.74,.26-1.05,.47,.34,.03,.63,.13,.87,.29s.37,.44,.37,.82c0,.43-.14,.78-.43,1.04-.29,.26-.71,.39-1.27,.39-1.12,0-1.68-.55-1.68-1.64,0-.39,.12-.77,.35-1.13,.23-.36,.57-.68,1.01-.96,.44-.27,.98-.49,1.63-.65,.64-.16,1.38-.24,2.21-.24,.64,0,1.29,.06,1.93,.18,.64,.12,1.22,.32,1.72,.61s.91,.68,1.23,1.18c.31,.5,.47,1.12,.47,1.88v4.89Zm-3.61-3.42c-.66,.28-1.24,.51-1.75,.69-.51,.18-.94,.36-1.3,.55-.36,.18-.63,.39-.81,.62-.18,.23-.27,.54-.27,.93,0,.36,.13,.67,.38,.9,.25,.24,.65,.36,1.2,.36,.59,0,1.1-.15,1.54-.46,.44-.31,.78-.69,1.02-1.15v-2.44Z"/>
                <path d="M477.02,656.14c0,.63,.6,.94,1.81,.94v1.72h-6.85v-1.72c.8,0,1.2-.31,1.2-.94v-3.31c0-.88-.12-1.52-.36-1.93-.24-.41-.57-.61-1.01-.61-.59,0-1.13,.23-1.64,.69s-.88,1.09-1.11,1.88v3.27c0,.63,.39,.94,1.18,.94v1.72h-6.8v-1.72c1.19,0,1.79-.31,1.79-.94v-5.4c0-.63-.59-.94-1.76-.94v-1.68h5.61v2.14c.5-.76,1.13-1.34,1.9-1.74,.77-.41,1.67-.61,2.69-.61,1.09,0,1.93,.25,2.5,.74,.57,.5,.86,1.29,.86,2.38v5.11Z"/>
                <path d="M491.37,656.16c0,.63,.61,.94,1.83,.94v1.7h-4.94l-.15-1.74c-.34,.71-.87,1.24-1.6,1.59-.73,.34-1.55,.51-2.48,.51-.67,0-1.3-.1-1.89-.31-.59-.21-1.09-.55-1.52-1.01-.43-.46-.77-1.05-1.02-1.77-.25-.72-.38-1.6-.38-2.64s.14-1.94,.41-2.67c.27-.73,.65-1.32,1.12-1.77s1.03-.78,1.67-.99c.64-.2,1.33-.3,2.07-.3,.63,0,1.21,.08,1.73,.23,.53,.15,.96,.39,1.29,.71v-3.38c0-.63-.59-.95-1.78-.95v-1.68h5.63v13.52Zm-5.84-6.62c-.85,0-1.48,.31-1.87,.92-.39,.62-.59,1.54-.59,2.77s.2,2.15,.59,2.76c.39,.61,1.01,.91,1.87,.91s1.47-.3,1.81-.91c.34-.61,.5-1.53,.5-2.76s-.17-2.16-.5-2.77-.94-.92-1.81-.92Z"/>
                <path d="M506.28,653.41c0,1.89-.53,3.32-1.58,4.29-1.05,.97-2.55,1.46-4.49,1.46-.78,0-1.53-.08-2.24-.25s-1.33-.46-1.86-.87c-.53-.41-.96-.97-1.27-1.68-.32-.71-.47-1.61-.47-2.7,0-3.98,2.02-5.96,6.05-5.96,.8,0,1.55,.09,2.27,.26,.71,.18,1.34,.48,1.87,.91,.53,.43,.95,1.02,1.26,1.75,.31,.74,.46,1.66,.46,2.78Zm-5.9-3.84c-.76,0-1.31,.27-1.67,.81-.36,.54-.54,1.44-.54,2.7,0,.87,.04,1.58,.13,2.13,.08,.55,.21,.99,.38,1.3s.38,.53,.64,.64c.26,.11,.57,.17,.93,.17,.81,0,1.38-.29,1.7-.88,.32-.59,.48-1.56,.48-2.92,0-.8-.04-1.45-.14-1.96-.09-.51-.22-.91-.4-1.21s-.39-.5-.64-.61c-.25-.11-.55-.17-.88-.17Z"/>
                <path d="M508.08,661.14c.63-.32,1.06-.65,1.3-.99,.24-.34,.36-.67,.36-.99,0-.29-.12-.44-.36-.44-.53,0-.93-.15-1.2-.44s-.4-.71-.4-1.24c0-.59,.17-1.04,.52-1.35s.8-.47,1.37-.47c.64,0,1.15,.2,1.52,.6,.37,.4,.56,.98,.56,1.73,0,1.13-.27,2.04-.81,2.72-.54,.68-1.32,1.27-2.34,1.77l-.52-.9Z"/>
                <path d="M534.58,647.93l-1.76,.1c-.15-1.79-.91-2.69-2.27-2.69h-4.01v4.81h1.72c.67,0,1.07-.81,1.2-2.44h1.74l-.32,6.97h-1.7c-.15-1.68-.51-2.52-1.07-2.52h-1.58v3.95c0,.64,.78,.97,2.35,.97v1.72h-8.48v-1.72c1.25,0,1.87-.32,1.87-.97v-10.23c0-.64-.62-.97-1.87-.97v-1.72h14.17v4.73Z"/>
                <path d="M541.26,656.14c0,.63,.59,.94,1.79,.94v1.72h-7.41v-1.72c1.19,0,1.79-.31,1.79-.94v-10.88c0-.63-.6-.94-1.79-.94v-1.68h5.63v13.5Z"/>
                <path d="M548.93,657.05c0,.55-.18,1-.55,1.38-.37,.37-.82,.56-1.35,.56s-1.01-.19-1.38-.56c-.37-.37-.56-.83-.56-1.38,0-.52,.19-.96,.56-1.33,.37-.37,.83-.56,1.38-.56,.27,0,.52,.05,.75,.15,.23,.1,.43,.23,.6,.41,.17,.18,.3,.38,.4,.61,.1,.23,.15,.47,.15,.72Z"/>
            </g>
        </g>
    </g>
</svg>